<svg xmlns="http://www.w3.org/2000/svg" viewBox="0 0 295.51 164.58"><defs><style>.cls-1{fill:#426271;}</style></defs><g id="Layer_2" data-name="Layer 2"><g id="Layer_1-2" data-name="Layer 1"><path class="cls-1" d="M49.91,36.65a3.4,3.4,0,0,0,3.4-3.39V26.67l5.54-5.53,11.26,14a3.25,3.25,0,0,0,2.75,1.49,3.44,3.44,0,0,0,3.39-3.39,3.61,3.61,0,0,0-.86-2.32L63.64,16.45,74.44,5.74a3.32,3.32,0,0,0,1-2.39A3.37,3.37,0,0,0,72.19,0a3.64,3.64,0,0,0-2.47,1L53.31,17.87V3.4a3.37,3.37,0,1,0-6.74,0V33.26a3.37,3.37,0,0,0,3.34,3.39"/><path class="cls-1" d="M85.22,36.42h20.85a3.21,3.21,0,1,0,0-6.42H88.62V21.39H103.7a3.21,3.21,0,0,0,3.21-3.2A3.25,3.25,0,0,0,103.7,15H88.62V6.65h17.21a3.21,3.21,0,1,0,0-6.41H85.22a3.37,3.37,0,0,0-3.35,3.39V33a3.38,3.38,0,0,0,3.35,3.4"/><path class="cls-1" d="M118.43,36.42h19.11a3.24,3.24,0,0,0,0-6.47H121.83V3.4a3.37,3.37,0,1,0-6.74,0V33a3.38,3.38,0,0,0,3.34,3.4"/><path class="cls-1" d="M149.24,36.42h19.09a3.24,3.24,0,0,0,0-6.47h-15.7V3.4a3.37,3.37,0,1,0-6.74,0V33a3.38,3.38,0,0,0,3.35,3.4"/><path class="cls-1" d="M180.86,22.36v10.9a3.4,3.4,0,0,0,6.79,0v-11l12-16.67.06-.09a4.25,4.25,0,0,0,.74-2.16A3.35,3.35,0,0,0,197.1,0a3.6,3.6,0,0,0-3,1.78l-9.81,14-9.73-14a3.65,3.65,0,0,0-3-1.77,3.44,3.44,0,0,0-3.44,3.35,4,4,0,0,0,.71,2.15Z"/><path class="cls-1" d="M27.55,41.28c-5.54-.83-8.84-4-8.84-8.49a8.46,8.46,0,0,1,14.11-6.32,3.41,3.41,0,0,0,4.55-5.09A15.29,15.29,0,0,0,11.89,32.79c0,8,5.81,14,14.81,15.26l.24,0c12.13.86,20.6,9.24,20.6,20.36a20.36,20.36,0,0,1-40.72,0,3.41,3.41,0,0,0-6.82,0,27.19,27.19,0,1,0,54.37,0c0-14.82-11-26-26.82-27.16"/><path class="cls-1" d="M63.78,46.06a3.37,3.37,0,0,0-3.35,3.39V79.07a3.37,3.37,0,0,0,3.35,3.4h19.1a3.23,3.23,0,0,0,0-6.46H67.18V49.45a3.4,3.4,0,0,0-3.4-3.39"/><path class="cls-1" d="M101.21,67.29l5.32-11.81,5.31,11.81Zm5.32-21.38a3.92,3.92,0,0,0-3.74,2.54L89.34,77.86A3.62,3.62,0,0,0,89,79.5a3.21,3.21,0,0,0,3.2,3.21,3.33,3.33,0,0,0,3.17-2.17l3.06-6.84h16.27l3,6.74a3.52,3.52,0,0,0,3.22,2.27,3.31,3.31,0,0,0,3.31-3.31,3.93,3.93,0,0,0-.38-1.57L110.43,48.51a3.86,3.86,0,0,0-3.72-2.6Z"/><path class="cls-1" d="M137.94,82.71a3.41,3.41,0,0,0,3.4-3.4V52.75h8.12a3.24,3.24,0,0,0,3.26-3.2,3.31,3.31,0,0,0-3.26-3.26h-23a3.3,3.3,0,0,0-3.25,3.26,3.23,3.23,0,0,0,3.25,3.2h8.12V79.31a3.41,3.41,0,0,0,3.4,3.4"/><path class="cls-1" d="M181.92,52.71a3.21,3.21,0,0,0,0-6.42H161.3a3.39,3.39,0,0,0-3.35,3.4V79.08a3.38,3.38,0,0,0,3.35,3.39h20.86a3.21,3.21,0,0,0,0-6.41H164.7V67.45h15.09a3.21,3.21,0,0,0,3.2-3.21,3.24,3.24,0,0,0-3.2-3.21H164.7V52.71Z"/><path class="cls-1" d="M197.92,52.75h8.73c2.61,0,7,.66,7,5.14,0,3.92-3.63,5.32-7,5.32h-8.69Zm19.11,30A3.34,3.34,0,0,0,219.47,77l-6.83-8.8c4.92-1.69,7.79-5.5,7.79-10.58a10.62,10.62,0,0,0-3-7.6c-2.42-2.42-6.15-3.76-10.49-3.76H194.52a3.38,3.38,0,0,0-3.35,3.4V79.31a3.38,3.38,0,1,0,6.75,0V69.58h7.29l8.87,11.53a3.62,3.62,0,0,0,2.95,1.6"/><path class="cls-1" d="M101,96.68a3.63,3.63,0,0,0,.26-1.22,3.47,3.47,0,0,0-3.4-3.35,3.41,3.41,0,0,0-3.22,2.48l-7.73,22.25L79.59,94.61a3.4,3.4,0,0,0-3.28-2.5h-.23a3.34,3.34,0,0,0-3.27,2.5l-7.29,22.23L57.83,94.7a3.58,3.58,0,0,0-3.37-2.59A3.47,3.47,0,0,0,51,95.51a3.9,3.9,0,0,0,.27,1.33L61.9,126.32A3.54,3.54,0,0,0,65.27,129h.29a3.56,3.56,0,0,0,3.36-2.63L76.08,105l7.21,21.31A3.55,3.55,0,0,0,86.65,129h.28a3.55,3.55,0,0,0,3.35-2.6l10.64-29.52Z"/><path class="cls-1" d="M112.94,113.34l5.31-11.81,5.31,11.81Zm9.21-18.78A3.85,3.85,0,0,0,118.44,92h-.19a3.91,3.91,0,0,0-3.73,2.53l-13.45,29.41a3.64,3.64,0,0,0-.39,1.65,3.21,3.21,0,0,0,3.21,3.2,3.36,3.36,0,0,0,3.17-2.16l3.06-6.84h16.26l3.06,6.73a3.51,3.51,0,0,0,3.22,2.27,3.3,3.3,0,0,0,3.3-3.3,4,4,0,0,0-.37-1.57Z"/><path class="cls-1" d="M165.07,92.11a3.7,3.7,0,0,0-3.19,2.16l-10.17,24.36L141.62,94.46a3.56,3.56,0,0,0-3.33-2.35,3.41,3.41,0,0,0-3.39,3.35,3.17,3.17,0,0,0,.31,1.45L148,126.42a3.73,3.73,0,0,0,3.57,2.48h.19a3.73,3.73,0,0,0,3.55-2.46l12.86-29.71a3.52,3.52,0,0,0,.25-1.32,3.33,3.33,0,0,0-3.35-3.3"/><path class="cls-1" d="M198.15,122.11H180.69V113.5h15.09a3.21,3.21,0,0,0,3.2-3.21,3.25,3.25,0,0,0-3.2-3.2H180.69V98.76h17.22a3.21,3.21,0,1,0,0-6.41H177.29a3.38,3.38,0,0,0-3.35,3.4v29.38a3.38,3.38,0,0,0,3.35,3.39h20.86a3.21,3.21,0,0,0,0-6.41"/><path class="cls-1" d="M288.62,110.75v.09c0,6.9-4.94,12.11-11.49,12.11s-11.58-5.25-11.58-12.3,4.94-12.1,11.49-12.1,11.58,5.25,11.58,12.2M277.13,92.09a18.36,18.36,0,0,0-18.46,18.66v.09c0,10.59,7.9,18.57,18.37,18.57a18.4,18.4,0,0,0,18.47-18.76c0-10.58-7.9-18.56-18.38-18.56"/><path class="cls-1" d="M249.82,125.23c-8.65,8.55-20.53,9.41-28.9,2.08a20.36,20.36,0,0,1,26.83-30.63,3.41,3.41,0,1,0,4.5-5.13,27.18,27.18,0,1,0-35.83,40.89,26.3,26.3,0,0,0,17.45,6.74c7.27,0,14.65-3.06,20.75-9.1a3.41,3.41,0,0,0-4.8-4.85"/><path class="cls-1" d="M289.42,92.86h-.61c-.19,0-.33-.1-.33-.28s.14-.27.33-.27h1.86c.18,0,.33.1.33.27a.29.29,0,0,1-.33.28h-.61v2a.32.32,0,1,1-.64,0Z"/><path class="cls-1" d="M291.34,92.58c0-.26.17-.32.35-.32h.19c.2,0,.29.08.36.3l.56,1.81h0l.55-1.81c.07-.22.16-.3.36-.3h.18c.17,0,.35.06.35.32v2.3a.29.29,0,1,1-.57,0V93.13h0l-.6,1.87a.25.25,0,0,1-.28.19.25.25,0,0,1-.27-.19l-.6-1.87h0v1.75a.29.29,0,1,1-.57,0Z"/><path class="cls-1" d="M41,154.53H38.38c-.78,0-1.42-.41-1.42-1.16s.64-1.16,1.42-1.16h8c.79,0,1.43.4,1.43,1.16s-.64,1.16-1.43,1.16h-2.6v8.61a1.38,1.38,0,0,1-2.75,0Z"/><path class="cls-1" d="M49.67,153.37a1.38,1.38,0,1,1,2.75,0v3.42h5v-3.42a1.38,1.38,0,1,1,2.75,0v9.77a1.38,1.38,0,0,1-2.75,0v-4h-5v4a1.38,1.38,0,0,1-2.75,0Z"/><path class="cls-1" d="M63.23,153.82c0-1.22.63-1.61,1.61-1.61H71.3c.81,0,1.39.23,1.39,1.11s-.58,1.1-1.39,1.1H66V157h4.67c.72,0,1.29.2,1.29,1.06s-.57,1.06-1.29,1.06H66v2.92h5.45c.81,0,1.4.23,1.4,1.11s-.59,1.11-1.4,1.11H64.84c-1,0-1.61-.39-1.61-1.62Z"/><path class="cls-1" d="M87,157.29c2.52.58,3.16,2.07,3.16,3.48,0,2.18-1.65,3.81-5,3.81-3.49,0-5-1.75-5-3.05a1.1,1.1,0,0,1,1.15-1.15c1.5,0,1.11,2.19,3.9,2.19,1.42,0,2.21-.79,2.21-1.6,0-.49-.23-1-1.17-1.26l-3.11-.79c-2.5-.63-3-2-3-3.3,0-2.69,2.48-3.7,4.82-3.7,2.14,0,4.68,1.21,4.68,2.82a1.14,1.14,0,0,1-1.26,1.09c-1.28,0-1-1.79-3.61-1.79-1.27,0-2,.59-2,1.43s1,1.1,1.88,1.3Z"/><path class="cls-1" d="M98.09,151.92c3.16,0,4.89,2,4.89,3.16a1.13,1.13,0,0,1-1.25,1.24c-1.59,0-1.12-2.18-3.64-2.18-1.73,0-3.16,1.49-3.16,4.11,0,2.2.88,4.11,3.26,4.11,2.17,0,2.12-2.31,3.44-2.31.67,0,1.35.38,1.35,1.06,0,1.74-2.12,3.47-4.79,3.47-3.78,0-6-2.17-6-6.33C92.18,154.84,94.2,151.92,98.09,151.92Z"/><path class="cls-1" d="M105.11,153.37a1.38,1.38,0,0,1,2.76,0v9.77a1.38,1.38,0,0,1-2.76,0Z"/><path class="cls-1" d="M110.91,153.82a1.4,1.4,0,0,1,1.61-1.61H119c.81,0,1.39.23,1.39,1.11s-.58,1.1-1.39,1.1h-5.32V157h4.67c.72,0,1.29.2,1.29,1.06s-.57,1.06-1.29,1.06h-4.67v2.92h5.46c.8,0,1.39.23,1.39,1.11s-.59,1.11-1.39,1.11h-6.6c-1,0-1.61-.39-1.61-1.62Z"/><path class="cls-1" d="M122.71,153.6c0-1.14.56-1.61,1.73-1.61a1.53,1.53,0,0,1,1.38.72l4.82,7.77h0v-7.16a1.33,1.33,0,1,1,2.65,0v9.48c0,1.09-.47,1.71-1.62,1.71-.88,0-1.16-.18-1.52-.74l-4.78-7.55h0v7a1.33,1.33,0,0,1-2.66,0Z"/><path class="cls-1" d="M141.78,151.92c3.15,0,4.88,2,4.88,3.16a1.12,1.12,0,0,1-1.24,1.24c-1.6,0-1.13-2.18-3.64-2.18-1.73,0-3.16,1.49-3.16,4.11,0,2.2.87,4.11,3.26,4.11,2.16,0,2.11-2.31,3.44-2.31a1.2,1.2,0,0,1,1.34,1.06c0,1.74-2.11,3.47-4.78,3.47-3.78,0-6-2.17-6-6.33C135.87,154.84,137.88,151.92,141.78,151.92Z"/><path class="cls-1" d="M148.87,153.82c0-1.22.63-1.61,1.61-1.61h6.46c.81,0,1.39.23,1.39,1.11s-.58,1.1-1.39,1.1h-5.32V157h4.66c.73,0,1.3.2,1.3,1.06s-.57,1.06-1.3,1.06h-4.66v2.92h5.45c.81,0,1.4.23,1.4,1.11s-.59,1.11-1.4,1.11h-6.59c-1,0-1.61-.39-1.61-1.62Z"/><path class="cls-1" d="M171.85,151.92c4,0,6.12,2.64,6.12,6.18s-2,6.48-6.12,6.48c-4.33,0-6.11-2.82-6.11-6.48S167.89,151.92,171.85,151.92Zm0,10.44c2.51,0,3.36-1.94,3.36-4.26s-1.11-4-3.36-4-3.35,1.64-3.35,4S169.27,162.36,171.85,162.36Z"/><path class="cls-1" d="M180.47,153.82c0-1.22.64-1.61,1.62-1.61h6.06c.8,0,1.39.23,1.39,1.11s-.59,1.1-1.39,1.1h-4.92v2.82h4.16c.72,0,1.29.21,1.29,1.06s-.57,1.06-1.29,1.06h-4.16v3.78a1.38,1.38,0,0,1-2.76,0Z"/><path class="cls-1" d="M203.3,157.29c2.51.58,3.15,2.07,3.15,3.48,0,2.18-1.64,3.81-5,3.81-3.49,0-5-1.75-5-3.05a1.11,1.11,0,0,1,1.16-1.15c1.49,0,1.11,2.19,3.89,2.19,1.43,0,2.22-.79,2.22-1.6,0-.49-.24-1-1.18-1.26l-3.1-.79c-2.5-.63-3-2-3-3.3,0-2.69,2.49-3.7,4.82-3.7,2.15,0,4.69,1.21,4.69,2.82a1.14,1.14,0,0,1-1.26,1.09c-1.28,0-1.05-1.79-3.61-1.79-1.28,0-2,.59-2,1.43s1,1.1,1.88,1.3Z"/><path class="cls-1" d="M211.85,154.53h-2.6c-.79,0-1.43-.41-1.43-1.16s.64-1.16,1.43-1.16h7.95c.79,0,1.43.4,1.43,1.16s-.64,1.16-1.43,1.16h-2.6v8.61a1.38,1.38,0,0,1-2.75,0Z"/><path class="cls-1" d="M225.8,151.92c4,0,6.11,2.64,6.11,6.18s-2,6.48-6.11,6.48c-4.33,0-6.11-2.82-6.11-6.48S221.84,151.92,225.8,151.92Zm0,10.44c2.5,0,3.36-1.94,3.36-4.26s-1.11-4-3.36-4-3.36,1.64-3.36,4S223.22,162.36,225.8,162.36Z"/><path class="cls-1" d="M234.35,153.37a1.38,1.38,0,0,1,2.76,0v4l4.33-4.76a1.44,1.44,0,0,1,1.09-.61,1.2,1.2,0,0,1,1.31,1.11,1.29,1.29,0,0,1-.46.94l-2.82,3,3.35,5.09a2.27,2.27,0,0,1,.52,1.09,1.26,1.26,0,0,1-1.41,1.32,1.23,1.23,0,0,1-1.23-.72l-3.17-4.9-1.51,1.51v2.74a1.38,1.38,0,0,1-2.76,0Z"/><path class="cls-1" d="M246.35,153.82c0-1.22.63-1.61,1.61-1.61h6.46c.81,0,1.39.23,1.39,1.11s-.58,1.1-1.39,1.1H249.1V157h4.67c.72,0,1.29.2,1.29,1.06s-.57,1.06-1.29,1.06H249.1v2.92h5.45c.81,0,1.4.23,1.4,1.11s-.59,1.11-1.4,1.11H248c-1,0-1.61-.39-1.61-1.62Z"/><path class="cls-1" d="M256.92,152.66h-.47a.22.22,0,0,1-.25-.21c0-.13.12-.2.25-.2h1.41c.14,0,.26.07.26.2s-.12.21-.26.21h-.46v1.52a.24.24,0,1,1-.48,0Z"/><path class="cls-1" d="M258.37,152.45c0-.2.13-.24.26-.24h.15c.15,0,.22.06.27.22l.42,1.38h0l.42-1.38c.05-.16.12-.22.27-.22h.14c.13,0,.26,0,.26.24v1.74c0,.12-.05.24-.21.24a.21.21,0,0,1-.22-.24v-1.33h0l-.45,1.42a.2.2,0,0,1-.21.15.21.21,0,0,1-.21-.15l-.45-1.42h0v1.33a.22.22,0,1,1-.43,0Z"/></g></g></svg>